<svg xmlns="http://www.w3.org/2000/svg" xmlns:xlink="http://www.w3.org/1999/xlink" width="500" zoomAndPan="magnify" viewBox="0 0 375 374.999991" height="500" preserveAspectRatio="xMidYMid meet" version="1.0"><defs><g/><clipPath id="81a3149001"><path d="M 20.148438 14.25 L 318 14.25 L 318 361 L 20.148438 361 Z M 20.148438 14.25 " clip-rule="nonzero"/></clipPath><clipPath id="74be67592d"><path d="M 301.484375 279.902344 C 305.058594 283.476562 304.882812 288.964844 300.527344 293.289062 C 281.941406 311.875 259.84375 324.738281 234.320312 330.75 C 221.339844 333.800781 207.835938 334.324219 194.535156 335.976562 C 192.941406 336.152344 191.3125 336.210938 188.875 336.382812 C 190.121094 340.363281 190.703125 343.875 192.273438 346.925781 C 192.996094 348.230469 195.554688 349.191406 197.265625 349.191406 C 202.085938 349.25 206.964844 348.84375 211.785156 348.347656 C 215.707031 348.058594 219.277344 348.640625 219.886719 353.109375 C 220.527344 357.988281 216.78125 359.355469 212.800781 359.671875 C 188.699219 361.472656 164.625 360.632812 141.628906 352.472656 C 73.851562 328.371094 32.644531 281.09375 22.164062 209.574219 C 9.355469 121.554688 68.769531 36.589844 158.933594 18.46875 C 219.132812 6.445312 272.246094 21.867188 317.050781 63.972656 L 263.792969 104.714844 C 258.363281 100.183594 252.847656 95.972656 246.75 92.632812 C 183.820312 57.4375 102.308594 95.652344 88.3125 166.449219 C 76.117188 228.070312 119.53125 287.222656 182.167969 294.367188 C 201.765625 296.628906 220.640625 294.015625 238.792969 286.320312 C 239.691406 285.914062 240.648438 285.480469 241.578125 285.1875 C 244.859375 284 247.707031 284.464844 249.070312 287.917969 C 250.378906 291.199219 249.363281 294.105469 245.964844 295.351562 C 237.804688 298.285156 229.644531 301.539062 221.195312 303.511719 C 206.558594 307.027344 191.605469 307.257812 176.648438 304.820312 C 174.964844 304.527344 173.191406 304.527344 170.753906 304.355469 C 175.34375 313.152344 179.8125 318.699219 190.761719 318.699219 C 228.335938 318.757812 260.804688 306.675781 288.128906 280.890625 C 292.890625 276.417969 297.652344 276.128906 301.457031 279.875 " clip-rule="nonzero"/></clipPath><clipPath id="7814f2c773"><path d="M 0.148438 0.25 L 297.28125 0.25 L 297.28125 347 L 0.148438 347 Z M 0.148438 0.25 " clip-rule="nonzero"/></clipPath><clipPath id="d988e198d1"><path d="M 281.484375 265.902344 C 285.058594 269.476562 284.882812 274.964844 280.527344 279.289062 C 261.941406 297.875 239.84375 310.738281 214.320312 316.75 C 201.339844 319.800781 187.835938 320.324219 174.535156 321.976562 C 172.941406 322.152344 171.3125 322.210938 168.875 322.382812 C 170.121094 326.363281 170.703125 329.875 172.273438 332.925781 C 172.996094 334.230469 175.554688 335.191406 177.265625 335.191406 C 182.085938 335.25 186.964844 334.84375 191.785156 334.347656 C 195.707031 334.058594 199.277344 334.640625 199.886719 339.109375 C 200.527344 343.988281 196.78125 345.355469 192.800781 345.671875 C 168.699219 347.472656 144.625 346.632812 121.628906 338.472656 C 53.851562 314.371094 12.644531 267.09375 2.164062 195.574219 C -10.644531 107.554688 48.769531 22.589844 138.933594 4.46875 C 199.132812 -7.554688 252.246094 7.867188 297.050781 49.972656 L 243.792969 90.714844 C 238.363281 86.183594 232.847656 81.972656 226.75 78.632812 C 163.820312 43.4375 82.308594 81.652344 68.3125 152.449219 C 56.117188 214.070312 99.53125 273.222656 162.167969 280.367188 C 181.765625 282.628906 200.640625 280.015625 218.792969 272.320312 C 219.691406 271.914062 220.648438 271.480469 221.578125 271.1875 C 224.859375 270 227.707031 270.464844 229.070312 273.917969 C 230.378906 277.199219 229.363281 280.105469 225.964844 281.351562 C 217.804688 284.285156 209.644531 287.539062 201.195312 289.511719 C 186.558594 293.027344 171.605469 293.257812 156.648438 290.820312 C 154.964844 290.527344 153.191406 290.527344 150.753906 290.355469 C 155.34375 299.152344 159.8125 304.699219 170.761719 304.699219 C 208.335938 304.757812 240.804688 292.675781 268.128906 266.890625 C 272.890625 262.417969 277.652344 262.128906 281.457031 265.875 " clip-rule="nonzero"/></clipPath><clipPath id="a2c4a935db"><rect x="0" width="298" y="0" height="347"/></clipPath><clipPath id="b974c611f1"><path d="M 228 316 L 302 316 L 302 357 L 228 357 Z M 228 316 " clip-rule="nonzero"/></clipPath><clipPath id="85e8cf1f6d"><path d="M 232.546875 356.421875 C 231.328125 355.054688 228.976562 353.488281 228.308594 351.367188 C 227.207031 347.824219 229.789062 345.910156 233.011719 344.894531 C 240.183594 342.65625 247.765625 341.175781 254.472656 337.953125 C 266.667969 332.117188 278.34375 325.203125 290.25 318.757812 C 290.972656 318.351562 291.613281 317.800781 292.339844 317.363281 C 295.242188 315.59375 298.148438 315.242188 300.382812 318.175781 C 302.792969 321.34375 301.921875 324.390625 298.816406 326.394531 C 290.945312 331.503906 283.308594 337.226562 274.859375 341.089844 C 262.71875 346.605469 249.914062 350.671875 237.367188 355.316406 C 236.292969 355.722656 235.105469 355.839844 232.546875 356.421875 " clip-rule="nonzero"/></clipPath><clipPath id="37cd2573f7"><path d="M 0 0 L 74 0 L 74 40.640625 L 0 40.640625 Z M 0 0 " clip-rule="nonzero"/></clipPath><clipPath id="f8e9f9782c"><path d="M 4.546875 40.421875 C 3.328125 39.054688 0.976562 37.488281 0.308594 35.367188 C -0.792969 31.824219 1.789062 29.910156 5.011719 28.894531 C 12.183594 26.65625 19.765625 25.175781 26.472656 21.953125 C 38.667969 16.117188 50.34375 9.203125 62.25 2.757812 C 62.972656 2.351562 63.613281 1.800781 64.339844 1.363281 C 67.242188 -0.40625 70.148438 -0.757812 72.382812 2.175781 C 74.792969 5.34375 73.921875 8.390625 70.816406 10.394531 C 62.945312 15.503906 55.308594 21.226562 46.859375 25.089844 C 34.71875 30.605469 21.914062 34.671875 9.367188 39.316406 C 8.292969 39.722656 7.105469 39.839844 4.546875 40.421875 " clip-rule="nonzero"/></clipPath><clipPath id="3329599cc5"><rect x="0" width="74" y="0" height="41"/></clipPath><clipPath id="2a69422fa5"><path d="M 253.304688 260.355469 L 284 260.355469 L 284 286.261719 L 253.304688 286.261719 Z M 253.304688 260.355469 " clip-rule="nonzero"/></clipPath><clipPath id="82e6e3ea4e"><path d="M 253.746094 280.832031 C 255.285156 278.886719 256.242188 277.144531 257.636719 275.925781 C 262.546875 271.597656 267.65625 267.535156 272.5625 263.207031 C 275.496094 260.621094 278.75 259.023438 281.886719 262.101562 C 285.136719 265.296875 283.539062 268.667969 280.550781 271.222656 C 274.945312 276.011719 269.339844 280.804688 263.445312 285.21875 C 262.023438 286.261719 259.175781 286.351562 257.464844 285.683594 C 255.984375 285.101562 255.167969 282.808594 253.71875 280.832031 " clip-rule="nonzero"/></clipPath><clipPath id="ba7d45377b"><path d="M 0.679688 0.355469 L 31 0.355469 L 31 26.261719 L 0.679688 26.261719 Z M 0.679688 0.355469 " clip-rule="nonzero"/></clipPath><clipPath id="394e28f42a"><path d="M 0.746094 20.832031 C 2.285156 18.886719 3.242188 17.144531 4.636719 15.925781 C 9.546875 11.597656 14.65625 7.535156 19.5625 3.207031 C 22.496094 0.621094 25.75 -0.976562 28.886719 2.101562 C 32.136719 5.296875 30.539062 8.667969 27.550781 11.222656 C 21.945312 16.011719 16.339844 20.804688 10.445312 25.21875 C 9.023438 26.261719 6.175781 26.351562 4.464844 25.683594 C 2.984375 25.101562 2.167969 22.808594 0.71875 20.832031 " clip-rule="nonzero"/></clipPath><clipPath id="ea32515a1f"><rect x="0" width="31" y="0" height="27"/></clipPath><clipPath id="2f453b6910"><path d="M 302 259.0625 L 320 259.0625 L 320 277.195312 L 302 277.195312 Z M 302 259.0625 " clip-rule="nonzero"/></clipPath><clipPath id="a6714eb35b"><path d="M 319.898438 268.316406 C 319.78125 273.457031 315.890625 277.203125 310.835938 277.058594 C 306.101562 276.914062 302.097656 272.46875 302.300781 267.648438 C 302.503906 263.003906 306.539062 259.488281 311.476562 259.605469 C 316.410156 259.722656 319.984375 263.4375 319.867188 268.316406 " clip-rule="nonzero"/></clipPath><clipPath id="79f55f6062"><path d="M 0 0.441406 L 18 0.441406 L 18 18.195312 L 0 18.195312 Z M 0 0.441406 " clip-rule="nonzero"/></clipPath><clipPath id="a114713344"><path d="M 17.898438 9.316406 C 17.78125 14.457031 13.890625 18.203125 8.835938 18.058594 C 4.101562 17.914062 0.0976562 13.46875 0.300781 8.648438 C 0.503906 4.003906 4.539062 0.488281 9.476562 0.605469 C 14.410156 0.722656 17.984375 4.4375 17.867188 9.316406 " clip-rule="nonzero"/></clipPath><clipPath id="f21f02e4ab"><rect x="0" width="18" y="0" height="19"/></clipPath><clipPath id="b583275e4f"><path d="M 304 297 L 323 297 L 323 315 L 304 315 Z M 304 297 " clip-rule="nonzero"/></clipPath><clipPath id="0726944580"><path d="M 322.976562 301.363281 C 322.800781 306.53125 314.410156 314.78125 310.402344 314.867188 C 306.132812 314.953125 303.226562 310.308594 305.785156 306.792969 C 308.195312 303.484375 311.273438 300.464844 314.582031 298.023438 C 315.917969 297.035156 318.792969 297.328125 320.566406 298.054688 C 321.871094 298.574219 322.539062 300.726562 322.945312 301.363281 " clip-rule="nonzero"/></clipPath><clipPath id="af35e636ca"><path d="M 0 0 L 19 0 L 19 18 L 0 18 Z M 0 0 " clip-rule="nonzero"/></clipPath><clipPath id="36a90762b0"><path d="M 18.976562 4.363281 C 18.800781 9.53125 10.410156 17.78125 6.402344 17.867188 C 2.132812 17.953125 -0.773438 13.308594 1.785156 9.792969 C 4.195312 6.484375 7.273438 3.464844 10.582031 1.023438 C 11.917969 0.0351562 14.792969 0.328125 16.566406 1.054688 C 17.871094 1.574219 18.539062 3.726562 18.945312 4.363281 " clip-rule="nonzero"/></clipPath><clipPath id="f588dcd3d3"><rect x="0" width="19" y="0" height="18"/></clipPath><clipPath id="58e5707af4"><path d="M 100.886719 171.449219 L 132.238281 171.449219 L 132.238281 203.414062 L 100.886719 203.414062 Z M 100.886719 171.449219 " clip-rule="nonzero"/></clipPath><clipPath id="f1e50a0681"><path d="M 107.324219 188.519531 L 118.152344 188.519531 C 120.699219 188.519531 122.515625 188.0625 123.601562 187.144531 C 124.691406 186.226562 125.234375 184.726562 125.234375 182.636719 C 125.234375 181.410156 125.003906 180.359375 124.546875 179.484375 C 124.089844 178.613281 123.339844 177.941406 122.304688 177.476562 C 121.273438 177.007812 119.886719 176.777344 118.15625 176.777344 L 107.324219 176.777344 Z M 114.980469 194.09375 L 107.324219 194.09375 L 107.300781 203.371094 L 100.886719 203.28125 L 100.910156 171.449219 L 119.308594 171.496094 C 121.070312 171.496094 122.726562 171.71875 124.28125 172.171875 C 125.835938 172.621094 127.199219 173.308594 128.367188 174.234375 C 129.535156 175.160156 130.453125 176.316406 131.121094 177.710938 C 131.789062 179.101562 132.117188 180.742188 132.117188 182.636719 C 132.117188 184.632812 131.839844 186.320312 131.285156 187.699219 C 130.730469 189.078125 129.972656 190.203125 129.011719 191.085938 C 128.050781 191.964844 126.9375 192.636719 125.679688 193.09375 C 124.421875 193.550781 123.085938 193.847656 121.660156 193.980469 L 127.613281 203.371094 L 120.574219 203.371094 Z M 114.980469 194.09375 " clip-rule="nonzero"/></clipPath><clipPath id="dff2c28950"><path d="M 0.886719 0.449219 L 32.238281 0.449219 L 32.238281 32.414062 L 0.886719 32.414062 Z M 0.886719 0.449219 " clip-rule="nonzero"/></clipPath><clipPath id="693d7b1b14"><path d="M 7.324219 17.519531 L 18.152344 17.519531 C 20.699219 17.519531 22.515625 17.0625 23.601562 16.144531 C 24.691406 15.226562 25.234375 13.726562 25.234375 11.636719 C 25.234375 10.410156 25.003906 9.359375 24.546875 8.484375 C 24.089844 7.613281 23.339844 6.941406 22.304688 6.476562 C 21.273438 6.007812 19.886719 5.777344 18.15625 5.777344 L 7.324219 5.777344 Z M 14.980469 23.09375 L 7.324219 23.09375 L 7.300781 32.371094 L 0.886719 32.28125 L 0.910156 0.449219 L 19.308594 0.496094 C 21.070312 0.496094 22.726562 0.71875 24.28125 1.171875 C 25.835938 1.621094 27.199219 2.308594 28.367188 3.234375 C 29.535156 4.160156 30.453125 5.316406 31.121094 6.710938 C 31.789062 8.101562 32.117188 9.742188 32.117188 11.636719 C 32.117188 13.632812 31.839844 15.320312 31.285156 16.699219 C 30.730469 18.078125 29.972656 19.203125 29.011719 20.085938 C 28.050781 20.964844 26.9375 21.636719 25.679688 22.09375 C 24.421875 22.550781 23.085938 22.847656 21.660156 22.980469 L 27.613281 32.371094 L 20.574219 32.371094 Z M 14.980469 23.09375 " clip-rule="nonzero"/></clipPath><clipPath id="330112b590"><rect x="0" width="33" y="0" height="33"/></clipPath><clipPath id="64ad348620"><path d="M 136.984375 171.492188 L 165.664062 171.492188 L 165.664062 177.53125 L 136.984375 177.53125 Z M 136.984375 177.53125 L 143.023438 177.53125 L 143.023438 184.722656 L 136.984375 184.722656 Z M 136.984375 184.722656 L 160.226562 184.722656 L 160.226562 189.738281 L 136.984375 189.738281 Z M 136.984375 189.738281 L 143.023438 189.738281 L 143.023438 197.332031 L 136.984375 197.332031 Z M 136.984375 197.332031 L 165.664062 197.332031 L 165.664062 203.371094 L 136.984375 203.371094 Z M 136.984375 197.332031 " clip-rule="nonzero"/></clipPath><clipPath id="3a1ac789f6"><path d="M 0.984375 0.492188 L 29.664062 0.492188 L 29.664062 6.53125 L 0.984375 6.53125 Z M 0.984375 6.53125 L 7.023438 6.53125 L 7.023438 13.722656 L 0.984375 13.722656 Z M 0.984375 13.722656 L 24.226562 13.722656 L 24.226562 18.738281 L 0.984375 18.738281 Z M 0.984375 18.738281 L 7.023438 18.738281 L 7.023438 26.332031 L 0.984375 26.332031 Z M 0.984375 26.332031 L 29.664062 26.332031 L 29.664062 32.371094 L 0.984375 32.371094 Z M 0.984375 26.332031 " clip-rule="nonzero"/></clipPath><clipPath id="d15e006c9f"><rect x="0" width="30" y="0" height="33"/></clipPath><clipPath id="42d62c456d"><path d="M 210.050781 171.492188 L 217.199219 171.492188 L 217.199219 197.441406 L 210.050781 197.441406 Z M 210.050781 197.441406 L 237.554688 197.441406 L 237.554688 203.371094 L 210.050781 203.371094 Z M 210.050781 197.441406 " clip-rule="nonzero"/></clipPath><clipPath id="713ff4ee1d"><path d="M 0.0507812 0.492188 L 7.199219 0.492188 L 7.199219 26.441406 L 0.0507812 26.441406 Z M 0.0507812 26.441406 L 27.554688 26.441406 L 27.554688 32.371094 L 0.0507812 32.371094 Z M 0.0507812 26.441406 " clip-rule="nonzero"/></clipPath><clipPath id="7c3fbb8fc8"><rect x="0" width="28" y="0" height="33"/></clipPath><clipPath id="9b61e030be"><path d="M 242.183594 171.492188 L 270.863281 171.492188 L 270.863281 177.53125 L 242.183594 177.53125 Z M 242.183594 177.53125 L 248.222656 177.53125 L 248.222656 184.722656 L 242.183594 184.722656 Z M 242.183594 184.722656 L 265.429688 184.722656 L 265.429688 189.738281 L 242.183594 189.738281 Z M 242.183594 189.738281 L 248.222656 189.738281 L 248.222656 197.332031 L 242.183594 197.332031 Z M 242.183594 197.332031 L 270.863281 197.332031 L 270.863281 203.371094 L 242.183594 203.371094 Z M 242.183594 197.332031 " clip-rule="nonzero"/></clipPath><clipPath id="014bdb84e6"><path d="M 0.183594 0.492188 L 28.863281 0.492188 L 28.863281 6.53125 L 0.183594 6.53125 Z M 0.183594 6.53125 L 6.222656 6.53125 L 6.222656 13.722656 L 0.183594 13.722656 Z M 0.183594 13.722656 L 23.429688 13.722656 L 23.429688 18.738281 L 0.183594 18.738281 Z M 0.183594 18.738281 L 6.222656 18.738281 L 6.222656 26.332031 L 0.183594 26.332031 Z M 0.183594 26.332031 L 28.863281 26.332031 L 28.863281 32.371094 L 0.183594 32.371094 Z M 0.183594 26.332031 " clip-rule="nonzero"/></clipPath><clipPath id="ed7251327c"><rect x="0" width="29" y="0" height="33"/></clipPath><clipPath id="27af20b437"><path d="M 275.617188 171.492188 L 310.855469 171.492188 L 310.855469 203.371094 L 275.617188 203.371094 Z M 275.617188 171.492188 " clip-rule="nonzero"/></clipPath><clipPath id="ec14e41ce7"><path d="M 310.757812 203.371094 L 303.605469 203.371094 L 303.605469 179.441406 L 284.894531 203.371094 L 275.617188 203.371094 L 301.1875 171.492188 L 310.757812 171.492188 Z M 310.757812 203.371094 " clip-rule="nonzero"/></clipPath><clipPath id="f355e807e6"><path d="M 0.617188 0.492188 L 35.800781 0.492188 L 35.800781 32.371094 L 0.617188 32.371094 Z M 0.617188 0.492188 " clip-rule="nonzero"/></clipPath><clipPath id="a0212689c6"><path d="M 35.757812 32.371094 L 28.605469 32.371094 L 28.605469 8.441406 L 9.894531 32.371094 L 0.617188 32.371094 L 26.1875 0.492188 L 35.757812 0.492188 Z M 35.757812 32.371094 " clip-rule="nonzero"/></clipPath><clipPath id="d8db922440"><rect x="0" width="36" y="0" height="33"/></clipPath><clipPath id="9c41a468c4"><path d="M 315.710938 171.449219 L 347 171.449219 L 347 203.414062 L 315.710938 203.414062 Z M 315.710938 171.449219 " clip-rule="nonzero"/></clipPath><clipPath id="29f5a2b417"><path d="M 332.980469 188.519531 C 334 188.519531 334.898438 188.449219 335.675781 188.308594 C 336.457031 188.171875 337.121094 187.949219 337.675781 187.65625 C 338.226562 187.359375 338.679688 186.980469 339.027344 186.511719 C 339.378906 186.046875 339.632812 185.492188 339.804688 184.847656 C 339.972656 184.207031 340.058594 183.46875 340.058594 182.640625 C 340.058594 181.722656 339.933594 180.898438 339.679688 180.175781 C 339.429688 179.449219 339.023438 178.835938 338.460938 178.332031 C 337.898438 177.828125 337.167969 177.445312 336.273438 177.179688 C 335.382812 176.914062 334.28125 176.777344 332.980469 176.777344 L 322.148438 176.777344 L 322.148438 188.519531 Z M 334.132812 171.496094 C 335.894531 171.496094 337.554688 171.71875 339.105469 172.171875 C 340.660156 172.621094 342.023438 173.308594 343.191406 174.234375 C 344.359375 175.160156 345.277344 176.316406 345.945312 177.710938 C 346.613281 179.101562 346.945312 180.742188 346.945312 182.636719 C 346.945312 184.902344 346.59375 186.773438 345.890625 188.253906 C 345.1875 189.730469 344.230469 190.898438 343.027344 191.746094 C 341.820312 192.597656 340.453125 193.203125 338.921875 193.554688 C 337.390625 193.910156 335.796875 194.085938 334.136719 194.085938 L 322.148438 194.085938 L 322.125 203.363281 L 315.710938 203.28125 L 315.730469 171.449219 Z M 334.132812 171.496094 " clip-rule="nonzero"/></clipPath><clipPath id="0304f1a9de"><path d="M 0.710938 0.449219 L 32 0.449219 L 32 32.414062 L 0.710938 32.414062 Z M 0.710938 0.449219 " clip-rule="nonzero"/></clipPath><clipPath id="77ee12cd8c"><path d="M 17.980469 17.519531 C 19 17.519531 19.898438 17.449219 20.675781 17.308594 C 21.457031 17.171875 22.121094 16.949219 22.675781 16.65625 C 23.226562 16.359375 23.679688 15.980469 24.027344 15.511719 C 24.378906 15.046875 24.632812 14.492188 24.804688 13.847656 C 24.972656 13.207031 25.058594 12.46875 25.058594 11.640625 C 25.058594 10.722656 24.933594 9.898438 24.679688 9.175781 C 24.429688 8.449219 24.023438 7.835938 23.460938 7.332031 C 22.898438 6.828125 22.167969 6.445312 21.273438 6.179688 C 20.382812 5.914062 19.28125 5.777344 17.980469 5.777344 L 7.148438 5.777344 L 7.148438 17.519531 Z M 19.132812 0.496094 C 20.894531 0.496094 22.554688 0.71875 24.105469 1.171875 C 25.660156 1.621094 27.023438 2.308594 28.191406 3.234375 C 29.359375 4.160156 30.277344 5.316406 30.945312 6.710938 C 31.613281 8.101562 31.945312 9.742188 31.945312 11.636719 C 31.945312 13.902344 31.59375 15.773438 30.890625 17.253906 C 30.1875 18.730469 29.230469 19.898438 28.027344 20.746094 C 26.820312 21.597656 25.453125 22.203125 23.921875 22.554688 C 22.390625 22.910156 20.796875 23.085938 19.136719 23.085938 L 7.148438 23.085938 L 7.125 32.363281 L 0.710938 32.28125 L 0.730469 0.449219 Z M 19.132812 0.496094 " clip-rule="nonzero"/></clipPath><clipPath id="5748809a06"><rect x="0" width="32" y="0" height="33"/></clipPath><clipPath id="c363076f6f"><path d="M 172.839844 185.472656 L 175 185.472656 L 175 187.363281 L 172.839844 187.363281 Z M 172.839844 185.472656 " clip-rule="nonzero"/></clipPath><clipPath id="8e4a2d516a"><path d="M 173.921875 185.5625 C 174.460938 185.5625 174.898438 185.960938 174.898438 186.449219 C 174.898438 186.9375 174.460938 187.335938 173.921875 187.335938 C 173.378906 187.335938 172.941406 186.9375 172.941406 186.449219 C 172.941406 185.960938 173.378906 185.5625 173.921875 185.5625 " clip-rule="nonzero"/></clipPath><clipPath id="a0fae8f796"><path d="M 0.839844 0.519531 L 2.960938 0.519531 L 2.960938 2.363281 L 0.839844 2.363281 Z M 0.839844 0.519531 " clip-rule="nonzero"/></clipPath><clipPath id="569dfc5eb4"><path d="M 1.921875 0.5625 C 2.460938 0.5625 2.898438 0.960938 2.898438 1.449219 C 2.898438 1.9375 2.460938 2.335938 1.921875 2.335938 C 1.378906 2.335938 0.941406 1.9375 0.941406 1.449219 C 0.941406 0.960938 1.378906 0.5625 1.921875 0.5625 " clip-rule="nonzero"/></clipPath><clipPath id="95687c6afd"><rect x="0" width="3" y="0" height="3"/></clipPath><clipPath id="d81e39f2dd"><path d="M 169 171.417969 L 198.519531 171.417969 L 198.519531 200.203125 L 169 200.203125 Z M 169 171.417969 " clip-rule="nonzero"/></clipPath><clipPath id="4c6aa0f3c2"><path d="M 192.234375 193.234375 C 189.542969 197.578125 184.910156 200.4375 180.296875 200.164062 C 173.1875 199.742188 168.960938 192.058594 169.015625 186.152344 C 169.089844 178.167969 177.003906 173.695312 177.683594 173.324219 C 178.402344 172.933594 180.050781 172.058594 182.382812 171.511719 C 180.96875 172.230469 178.78125 173.558594 176.867188 175.832031 C 173.984375 179.257812 173.414062 182.808594 173.269531 184.382812 C 172.140625 184.726562 171.453125 185.742188 171.632812 186.742188 C 171.820312 187.8125 172.910156 188.457031 173.921875 188.511719 C 175.074219 188.578125 176.34375 187.890625 176.539062 186.742188 C 176.707031 185.753906 176.03125 184.742188 174.902344 184.382812 C 174.996094 183.605469 175.894531 176.882812 182.425781 173.472656 C 185.007812 172.121094 188.164062 171.28125 191.085938 171.75 C 193.542969 172.144531 195.992188 173.667969 197.847656 175.28125 C 198.046875 175.457031 198.234375 175.679688 198.449219 175.832031 C 197.316406 175.011719 194.8125 173.441406 191.417969 173.324219 C 185.476562 173.125 180.136719 177.5 178.664062 182.464844 C 176.953125 188.257812 180.261719 195.707031 185.207031 196.328125 C 188.320312 196.71875 191.148438 194.28125 192.234375 193.230469 " clip-rule="nonzero"/></clipPath><clipPath id="94c9575309"><path d="M 0 0.417969 L 29.480469 0.417969 L 29.480469 29.203125 L 0 29.203125 Z M 0 0.417969 " clip-rule="nonzero"/></clipPath><clipPath id="716a20181d"><path d="M 23.234375 22.234375 C 20.542969 26.578125 15.910156 29.4375 11.296875 29.164062 C 4.1875 28.742188 -0.0390625 21.058594 0.015625 15.152344 C 0.0898438 7.167969 8.003906 2.695312 8.683594 2.324219 C 9.402344 1.933594 11.050781 1.058594 13.382812 0.511719 C 11.96875 1.230469 9.78125 2.558594 7.867188 4.832031 C 4.984375 8.257812 4.414062 11.808594 4.269531 13.382812 C 3.140625 13.726562 2.453125 14.742188 2.632812 15.742188 C 2.820312 16.8125 3.910156 17.457031 4.921875 17.511719 C 6.074219 17.578125 7.34375 16.890625 7.539062 15.742188 C 7.707031 14.753906 7.03125 13.742188 5.902344 13.382812 C 5.996094 12.605469 6.894531 5.882812 13.425781 2.472656 C 16.007812 1.121094 19.164062 0.28125 22.085938 0.75 C 24.542969 1.144531 26.992188 2.667969 28.847656 4.28125 C 29.046875 4.457031 29.234375 4.679688 29.449219 4.832031 C 28.316406 4.011719 25.8125 2.441406 22.417969 2.324219 C 16.476562 2.125 11.136719 6.5 9.664062 11.464844 C 7.953125 17.257812 11.261719 24.707031 16.207031 25.328125 C 19.320312 25.71875 22.148438 23.28125 23.234375 22.230469 " clip-rule="nonzero"/></clipPath><clipPath id="39277f8d2d"><rect x="0" width="30" y="0" height="30"/></clipPath><clipPath id="7610830d0d"><path d="M 174.867188 174.527344 L 204.464844 174.527344 L 204.464844 203.582031 L 174.867188 203.582031 Z M 174.867188 174.527344 " clip-rule="nonzero"/></clipPath><clipPath id="88a7401ad7"><path d="M 204.335938 188.609375 C 204.253906 196.59375 196.34375 201.070312 195.667969 201.4375 C 194.828125 201.890625 192.726562 203.007812 189.761719 203.488281 C 191.269531 202.773438 194.746094 200.886719 197.140625 197.066406 C 198.9375 194.191406 199.335938 191.488281 199.429688 189.988281 L 201.390625 189.988281 L 198.773438 186.449219 L 195.832031 190.28125 L 197.792969 190.28125 C 197.707031 191.703125 197.296875 194.792969 194.851562 197.65625 C 191.800781 201.222656 187.078125 202.644531 182.523438 202.789062 C 179.738281 202.875 176.851562 200.8125 174.90625 198.929688 C 176.039062 199.753906 178.542969 201.324219 181.933594 201.4375 C 187.878906 201.636719 193.21875 197.257812 194.691406 192.296875 C 196.402344 186.507812 193.089844 179.058594 188.148438 178.4375 C 185.03125 178.042969 182.207031 180.484375 181.117188 181.535156 C 183.8125 177.1875 188.4375 174.328125 193.050781 174.605469 C 200.160156 175.027344 204.390625 182.707031 204.335938 188.609375 " clip-rule="nonzero"/></clipPath><clipPath id="67effcbcb7"><path d="M 0.867188 0.527344 L 30.464844 0.527344 L 30.464844 29.519531 L 0.867188 29.519531 Z M 0.867188 0.527344 " clip-rule="nonzero"/></clipPath><clipPath id="e5843a74f0"><path d="M 30.335938 14.609375 C 30.253906 22.59375 22.34375 27.070312 21.667969 27.4375 C 20.828125 27.890625 18.726562 29.007812 15.761719 29.488281 C 17.269531 28.773438 20.746094 26.886719 23.140625 23.066406 C 24.9375 20.191406 25.335938 17.488281 25.429688 15.988281 L 27.390625 15.988281 L 24.773438 12.449219 L 21.832031 16.28125 L 23.792969 16.28125 C 23.707031 17.703125 23.296875 20.792969 20.851562 23.65625 C 17.800781 27.222656 13.078125 28.644531 8.523438 28.789062 C 5.738281 28.875 2.851562 26.8125 0.90625 24.929688 C 2.039062 25.753906 4.542969 27.324219 7.933594 27.4375 C 13.878906 27.636719 19.21875 23.257812 20.691406 18.296875 C 22.402344 12.507812 19.089844 5.058594 14.148438 4.4375 C 11.03125 4.042969 8.207031 6.484375 7.117188 7.535156 C 9.8125 3.1875 14.4375 0.328125 19.050781 0.605469 C 26.160156 1.027344 30.390625 8.707031 30.335938 14.609375 " clip-rule="nonzero"/></clipPath><clipPath id="0f98db86c8"><rect x="0" width="31" y="0" height="30"/></clipPath><clipPath id="c3d4ca2e49"><path d="M 172.839844 185.472656 L 175 185.472656 L 175 187.363281 L 172.839844 187.363281 Z M 172.839844 185.472656 " clip-rule="nonzero"/></clipPath><clipPath id="2ba279047c"><path d="M 174.902344 186.449219 C 174.902344 186.9375 174.464844 187.335938 173.921875 187.335938 C 173.378906 187.335938 172.941406 186.9375 172.941406 186.449219 C 172.941406 185.960938 173.378906 185.5625 173.921875 185.5625 C 174.46875 185.5625 174.902344 185.960938 174.902344 186.449219 " clip-rule="nonzero"/></clipPath><clipPath id="6cf8105ea1"><path d="M 0.839844 0.519531 L 2.960938 0.519531 L 2.960938 2.363281 L 0.839844 2.363281 Z M 0.839844 0.519531 " clip-rule="nonzero"/></clipPath><clipPath id="b344151adb"><path d="M 2.902344 1.449219 C 2.902344 1.9375 2.464844 2.335938 1.921875 2.335938 C 1.378906 2.335938 0.941406 1.9375 0.941406 1.449219 C 0.941406 0.960938 1.378906 0.5625 1.921875 0.5625 C 2.46875 0.5625 2.902344 0.960938 2.902344 1.449219 " clip-rule="nonzero"/></clipPath><clipPath id="a3beb6aa55"><rect x="0" width="3" y="0" height="3"/></clipPath><clipPath id="ba53a2aaf7"><path d="M 0.839844 0.519531 L 2.960938 0.519531 L 2.960938 2.363281 L 0.839844 2.363281 Z M 0.839844 0.519531 " clip-rule="nonzero"/></clipPath><clipPath id="4ee3b90539"><path d="M 2.902344 1.449219 C 2.902344 1.9375 2.464844 2.335938 1.921875 2.335938 C 1.378906 2.335938 0.941406 1.9375 0.941406 1.449219 C 0.941406 0.960938 1.378906 0.5625 1.921875 0.5625 C 2.46875 0.5625 2.902344 0.960938 2.902344 1.449219 " clip-rule="nonzero"/></clipPath><clipPath id="55a981562d"><rect x="0" width="3" y="0" height="3"/></clipPath></defs><g clip-path="url(#81a3149001)"><g clip-path="url(#74be67592d)"><g transform="matrix(1, 0, 0, 1, 20, 14)"><g clip-path="url(#a2c4a935db)"><g clip-path="url(#7814f2c773)"><g clip-path="url(#d988e198d1)"><rect x="-102.5" width="540" fill="#ffffff" height="539.999987" y="-96.499998" fill-opacity="1"/></g></g></g></g></g></g><g clip-path="url(#b974c611f1)"><g clip-path="url(#85e8cf1f6d)"><g transform="matrix(1, 0, 0, 1, 228, 316)"><g clip-path="url(#3329599cc5)"><g clip-path="url(#37cd2573f7)"><g clip-path="url(#f8e9f9782c)"><rect x="-310.5" width="540" fill="#ffffff" height="539.999987" y="-398.499998" fill-opacity="1"/></g></g></g></g></g></g><g clip-path="url(#2a69422fa5)"><g clip-path="url(#82e6e3ea4e)"><g transform="matrix(1, 0, 0, 1, 253, 260)"><g clip-path="url(#ea32515a1f)"><g clip-path="url(#ba7d45377b)"><g clip-path="url(#394e28f42a)"><rect x="-335.5" width="540" fill="#ffffff" height="539.999987" y="-342.499998" fill-opacity="1"/></g></g></g></g></g></g><g clip-path="url(#2f453b6910)"><g clip-path="url(#a6714eb35b)"><g transform="matrix(1, 0, 0, 1, 302, 259)"><g clip-path="url(#f21f02e4ab)"><g clip-path="url(#79f55f6062)"><g clip-path="url(#a114713344)"><rect x="-384.5" width="540" fill="#ffffff" height="539.999987" y="-341.499998" fill-opacity="1"/></g></g></g></g></g></g><g clip-path="url(#b583275e4f)"><g clip-path="url(#0726944580)"><g transform="matrix(1, 0, 0, 1, 304, 297)"><g clip-path="url(#f588dcd3d3)"><g clip-path="url(#af35e636ca)"><g clip-path="url(#36a90762b0)"><rect x="-386.5" width="540" fill="#ffffff" height="539.999987" y="-379.499998" fill-opacity="1"/></g></g></g></g></g></g><g clip-path="url(#58e5707af4)"><g clip-path="url(#f1e50a0681)"><g transform="matrix(1, 0, 0, 1, 100, 171)"><g clip-path="url(#330112b590)"><g clip-path="url(#dff2c28950)"><g clip-path="url(#693d7b1b14)"><path fill="#ffffff" d="M 0.886719 0.449219 L 32.117188 0.449219 L 32.117188 32.414062 L 0.886719 32.414062 Z M 0.886719 0.449219 " fill-opacity="1" fill-rule="nonzero"/></g></g></g></g></g></g><g clip-path="url(#64ad348620)"><g transform="matrix(1, 0, 0, 1, 136, 171)"><g clip-path="url(#d15e006c9f)"><g clip-path="url(#3a1ac789f6)"><path fill="#ffffff" d="M 0.984375 0.492188 L 29.664062 0.492188 L 29.664062 32.421875 L 0.984375 32.421875 Z M 0.984375 0.492188 " fill-opacity="1" fill-rule="nonzero"/></g></g></g></g><g clip-path="url(#42d62c456d)"><g transform="matrix(1, 0, 0, 1, 210, 171)"><g clip-path="url(#7c3fbb8fc8)"><g clip-path="url(#713ff4ee1d)"><path fill="#ffffff" d="M 0.0507812 0.492188 L 27.554688 0.492188 L 27.554688 32.402344 L 0.0507812 32.402344 Z M 0.0507812 0.492188 " fill-opacity="1" fill-rule="nonzero"/></g></g></g></g><g clip-path="url(#9b61e030be)"><g transform="matrix(1, 0, 0, 1, 242, 171)"><g clip-path="url(#ed7251327c)"><g clip-path="url(#014bdb84e6)"><path fill="#ffffff" d="M 0.183594 0.492188 L 28.863281 0.492188 L 28.863281 32.421875 L 0.183594 32.421875 Z M 0.183594 0.492188 " fill-opacity="1" fill-rule="nonzero"/></g></g></g></g><g clip-path="url(#27af20b437)"><g clip-path="url(#ec14e41ce7)"><g transform="matrix(1, 0, 0, 1, 275, 171)"><g clip-path="url(#d8db922440)"><g clip-path="url(#f355e807e6)"><g clip-path="url(#a0212689c6)"><path fill="#ffffff" d="M 0.617188 0.492188 L 35.730469 0.492188 L 35.730469 32.371094 L 0.617188 32.371094 Z M 0.617188 0.492188 " fill-opacity="1" fill-rule="nonzero"/></g></g></g></g></g></g><g clip-path="url(#9c41a468c4)"><g clip-path="url(#29f5a2b417)"><g transform="matrix(1, 0, 0, 1, 315, 171)"><g clip-path="url(#5748809a06)"><g clip-path="url(#0304f1a9de)"><g clip-path="url(#77ee12cd8c)"><path fill="#ffffff" d="M 0.710938 0.449219 L 31.941406 0.449219 L 31.941406 32.414062 L 0.710938 32.414062 Z M 0.710938 0.449219 " fill-opacity="1" fill-rule="nonzero"/></g></g></g></g></g></g><g fill="#ffffff" fill-opacity="1"><g transform="translate(103.872902, 227.278096)"><g><path d="M 3.46875 -1.671875 L 8.34375 -1.65625 L 8.34375 0.015625 L 3.625 0.015625 C 3.15625 0.015625 2.71875 -0.0859375 2.3125 -0.296875 C 1.695312 -0.597656 1.25 -1.050781 0.96875 -1.65625 C 0.769531 -2.0625 0.671875 -2.492188 0.671875 -2.953125 L 0.671875 -9.3125 L 2.328125 -9.3125 L 2.328125 -2.796875 C 2.367188 -2.503906 2.492188 -2.253906 2.703125 -2.046875 C 2.910156 -1.835938 3.164062 -1.710938 3.46875 -1.671875 Z M 3.46875 -1.671875 "/></g></g></g><g fill="#ffffff" fill-opacity="1"><g transform="translate(114.16819, 227.278096)"><g><path d="M 3.1875 -7.65625 C 2.945312 -7.65625 2.742188 -7.570312 2.578125 -7.40625 C 2.410156 -7.238281 2.328125 -7.035156 2.328125 -6.796875 L 2.328125 -5.9375 L 8.328125 -5.9375 L 8.328125 -4.265625 L 2.328125 -4.265625 L 2.328125 -2.515625 C 2.328125 -2.285156 2.410156 -2.085938 2.578125 -1.921875 C 2.742188 -1.753906 2.945312 -1.671875 3.1875 -1.671875 L 9.984375 -1.671875 L 9.984375 0 L 3.1875 0 C 2.71875 0 2.296875 -0.109375 1.921875 -0.328125 C 1.546875 -0.554688 1.242188 -0.863281 1.015625 -1.25 C 0.785156 -1.632812 0.671875 -2.054688 0.671875 -2.515625 L 0.671875 -6.796875 C 0.671875 -7.265625 0.785156 -7.6875 1.015625 -8.0625 C 1.242188 -8.445312 1.546875 -8.75 1.921875 -8.96875 C 2.296875 -9.195312 2.71875 -9.3125 3.1875 -9.3125 L 9.984375 -9.3125 L 9.984375 -7.65625 Z M 3.1875 -7.65625 "/></g></g></g><g fill="#ffffff" fill-opacity="1"><g transform="translate(126.099467, 227.278096)"><g><path d="M 8.796875 -1.671875 L 9.65625 0 L 7.78125 0 L 6.9375 -1.671875 L 4.90625 -5.65625 L 2.859375 -1.671875 L 2.015625 0 L 0.140625 0 L 1 -1.671875 L 4.90625 -9.3125 Z M 8.796875 -1.671875 "/></g></g></g><g fill="#ffffff" fill-opacity="1"><g transform="translate(137.16619, 227.278096)"><g><path d="M 8.328125 -8.59375 L 8.328125 -8.5625 C 8.566406 -8.34375 8.75 -8.078125 8.875 -7.765625 C 9 -7.460938 9.0625 -7.140625 9.0625 -6.796875 C 9.0625 -6.285156 8.925781 -5.828125 8.65625 -5.421875 C 8.382812 -5.015625 8.03125 -4.707031 7.59375 -4.5 C 7.375 -4.394531 7.132812 -4.328125 6.875 -4.296875 C 6.875 -4.296875 6.863281 -4.296875 6.84375 -4.296875 C 6.832031 -4.296875 6.816406 -4.296875 6.796875 -4.296875 L 6.796875 -4.28125 L 2.34375 -4.28125 L 2.34375 0 L 0.671875 0 L 0.671875 -9.3125 L 6.546875 -9.3125 C 6.890625 -9.3125 7.210938 -9.25 7.515625 -9.125 C 7.828125 -9 8.097656 -8.820312 8.328125 -8.59375 Z M 6.90625 -6 L 6.90625 -6.015625 C 7.0625 -6.085938 7.1875 -6.191406 7.28125 -6.328125 C 7.375 -6.460938 7.421875 -6.617188 7.421875 -6.796875 C 7.421875 -6.941406 7.390625 -7.066406 7.328125 -7.171875 C 7.265625 -7.273438 7.207031 -7.351562 7.15625 -7.40625 C 7.101562 -7.457031 7.03125 -7.507812 6.9375 -7.5625 C 6.84375 -7.613281 6.71875 -7.640625 6.5625 -7.640625 L 2.34375 -7.640625 L 2.34375 -5.921875 L 6.5625 -5.921875 C 6.6875 -5.921875 6.800781 -5.945312 6.90625 -6 Z M 6.90625 -6 "/></g></g></g><g fill="#ffffff" fill-opacity="1"><g transform="translate(148.16641, 227.278096)"><g/></g></g><g fill="#ffffff" fill-opacity="1"><g transform="translate(155.934556, 227.278096)"><g><path d="M 2.328125 0 L 0.671875 0 L 0.671875 -9.3125 L 2.328125 -9.3125 Z M 2.328125 0 "/></g></g></g><g fill="#ffffff" fill-opacity="1"><g transform="translate(160.217919, 227.278096)"><g><path d="M 8.328125 -9.3125 L 9.984375 -9.3125 L 9.984375 0.015625 L 8.328125 -1.265625 L 2.328125 -5.890625 L 2.328125 0.015625 L 0.671875 0.015625 L 0.671875 -9.28125 L 2.328125 -8 L 8.328125 -3.375 Z M 8.328125 -9.3125 "/></g></g></g><g fill="#ffffff" fill-opacity="1"><g transform="translate(172.149197, 227.278096)"><g><path d="M 0.671875 -9.3125 L 9.96875 -9.3125 L 9.96875 -7.640625 L 6.15625 -7.640625 L 6.15625 0.015625 L 4.484375 0.015625 L 4.484375 -7.640625 L 0.671875 -7.640625 Z M 0.671875 -9.3125 "/></g></g></g><g fill="#ffffff" fill-opacity="1"><g transform="translate(184.080474, 227.278096)"><g><path d="M 5 -9.3125 C 5.632812 -9.3125 6.234375 -9.191406 6.796875 -8.953125 C 7.359375 -8.710938 7.851562 -8.378906 8.28125 -7.953125 C 8.71875 -7.523438 9.054688 -7.03125 9.296875 -6.46875 C 9.535156 -5.90625 9.65625 -5.300781 9.65625 -4.65625 C 9.65625 -4.019531 9.535156 -3.421875 9.296875 -2.859375 C 9.054688 -2.296875 8.71875 -1.796875 8.28125 -1.359375 C 7.851562 -0.929688 7.359375 -0.597656 6.796875 -0.359375 C 6.234375 -0.117188 5.632812 0 5 0 C 4.351562 0 3.75 -0.117188 3.1875 -0.359375 C 2.625 -0.597656 2.125 -0.929688 1.6875 -1.359375 C 1.257812 -1.796875 0.925781 -2.296875 0.6875 -2.859375 C 0.445312 -3.421875 0.328125 -4.019531 0.328125 -4.65625 C 0.328125 -5.300781 0.445312 -5.90625 0.6875 -6.46875 C 0.925781 -7.03125 1.257812 -7.523438 1.6875 -7.953125 C 2.125 -8.378906 2.625 -8.710938 3.1875 -8.953125 C 3.75 -9.191406 4.351562 -9.3125 5 -9.3125 Z M 5 -1.671875 C 5.539062 -1.671875 6.035156 -1.800781 6.484375 -2.0625 C 6.941406 -2.332031 7.304688 -2.691406 7.578125 -3.140625 C 7.847656 -3.597656 7.984375 -4.101562 7.984375 -4.65625 C 7.984375 -5.207031 7.847656 -5.707031 7.578125 -6.15625 C 7.304688 -6.613281 6.941406 -6.976562 6.484375 -7.25 C 6.035156 -7.519531 5.539062 -7.65625 5 -7.65625 C 4.445312 -7.65625 3.941406 -7.519531 3.484375 -7.25 C 3.035156 -6.976562 2.675781 -6.613281 2.40625 -6.15625 C 2.132812 -5.707031 2 -5.207031 2 -4.65625 C 2 -4.101562 2.132812 -3.597656 2.40625 -3.140625 C 2.675781 -2.691406 3.035156 -2.332031 3.484375 -2.0625 C 3.941406 -1.800781 4.445312 -1.671875 5 -1.671875 Z M 5 -1.671875 "/></g></g></g><g fill="#ffffff" fill-opacity="1"><g transform="translate(195.346712, 227.278096)"><g/></g></g><g fill="#ffffff" fill-opacity="1"><g transform="translate(203.114858, 227.278096)"><g><path d="M 0.671875 -9.3125 L 9.96875 -9.3125 L 9.96875 -7.640625 L 6.15625 -7.640625 L 6.15625 0.015625 L 4.484375 0.015625 L 4.484375 -7.640625 L 0.671875 -7.640625 Z M 0.671875 -9.3125 "/></g></g></g><g fill="#ffffff" fill-opacity="1"><g transform="translate(215.046136, 227.278096)"><g><path d="M 8.328125 -9.3125 L 9.984375 -9.3125 L 9.984375 0 L 8.328125 0 L 8.328125 -4.265625 L 2.328125 -4.265625 L 2.328125 0 L 0.671875 0 L 0.671875 -9.3125 L 2.328125 -9.3125 L 2.328125 -5.9375 L 8.328125 -5.9375 Z M 8.328125 -9.3125 "/></g></g></g><g fill="#ffffff" fill-opacity="1"><g transform="translate(226.977413, 227.278096)"><g><path d="M 3.1875 -7.65625 C 2.945312 -7.65625 2.742188 -7.570312 2.578125 -7.40625 C 2.410156 -7.238281 2.328125 -7.035156 2.328125 -6.796875 L 2.328125 -5.9375 L 8.328125 -5.9375 L 8.328125 -4.265625 L 2.328125 -4.265625 L 2.328125 -2.515625 C 2.328125 -2.285156 2.410156 -2.085938 2.578125 -1.921875 C 2.742188 -1.753906 2.945312 -1.671875 3.1875 -1.671875 L 9.984375 -1.671875 L 9.984375 0 L 3.1875 0 C 2.71875 0 2.296875 -0.109375 1.921875 -0.328125 C 1.546875 -0.554688 1.242188 -0.863281 1.015625 -1.25 C 0.785156 -1.632812 0.671875 -2.054688 0.671875 -2.515625 L 0.671875 -6.796875 C 0.671875 -7.265625 0.785156 -7.6875 1.015625 -8.0625 C 1.242188 -8.445312 1.546875 -8.75 1.921875 -8.96875 C 2.296875 -9.195312 2.71875 -9.3125 3.1875 -9.3125 L 9.984375 -9.3125 L 9.984375 -7.65625 Z M 3.1875 -7.65625 "/></g></g></g><g fill="#ffffff" fill-opacity="1"><g transform="translate(238.908691, 227.278096)"><g/></g></g><g fill="#ffffff" fill-opacity="1"><g transform="translate(246.676837, 227.278096)"><g><path d="M 8.796875 -1.671875 L 9.65625 0 L 7.78125 0 L 6.9375 -1.671875 L 4.90625 -5.65625 L 2.859375 -1.671875 L 2.015625 0 L 0.140625 0 L 1 -1.671875 L 4.90625 -9.3125 Z M 8.796875 -1.671875 "/></g></g></g><g fill="#ffffff" fill-opacity="1"><g transform="translate(257.743559, 227.278096)"><g><path d="M 2.328125 0 L 0.671875 0 L 0.671875 -9.3125 L 2.328125 -9.3125 Z M 2.328125 0 "/></g></g></g><g fill="#ffffff" fill-opacity="1"><g transform="translate(262.026922, 227.278096)"><g/></g></g><g fill="#ffffff" fill-opacity="1"><g transform="translate(269.795068, 227.278096)"><g><path d="M 3.1875 -9.3125 L 10 -9.3125 L 10 -7.65625 L 3.1875 -7.65625 C 2.957031 -7.65625 2.757812 -7.570312 2.59375 -7.40625 C 2.425781 -7.238281 2.34375 -7.035156 2.34375 -6.796875 L 2.34375 -5.9375 L 8.328125 -5.9375 L 8.328125 -4.265625 L 2.328125 -4.265625 L 2.328125 0 L 0.671875 0 L 0.671875 -6.796875 C 0.671875 -7.265625 0.785156 -7.6875 1.015625 -8.0625 C 1.242188 -8.445312 1.546875 -8.75 1.921875 -8.96875 C 2.296875 -9.195312 2.71875 -9.3125 3.1875 -9.3125 Z M 3.1875 -9.3125 "/></g></g></g><g fill="#ffffff" fill-opacity="1"><g transform="translate(281.726346, 227.278096)"><g><path d="M 8.328125 -9.3125 L 9.984375 -9.3125 L 9.984375 -4.65625 C 9.984375 -4.019531 9.863281 -3.421875 9.625 -2.859375 C 9.382812 -2.296875 9.046875 -1.796875 8.609375 -1.359375 C 8.179688 -0.929688 7.6875 -0.597656 7.125 -0.359375 C 6.5625 -0.117188 5.960938 0 5.328125 0 C 4.679688 0 4.078125 -0.117188 3.515625 -0.359375 C 2.953125 -0.597656 2.457031 -0.929688 2.03125 -1.359375 C 1.601562 -1.796875 1.269531 -2.296875 1.03125 -2.859375 C 0.789062 -3.421875 0.671875 -4.019531 0.671875 -4.65625 L 0.671875 -9.3125 L 2.328125 -9.3125 L 2.328125 -4.65625 C 2.328125 -4.101562 2.460938 -3.597656 2.734375 -3.140625 C 3.003906 -2.691406 3.363281 -2.332031 3.8125 -2.0625 C 4.269531 -1.800781 4.773438 -1.671875 5.328125 -1.671875 C 5.878906 -1.671875 6.378906 -1.800781 6.828125 -2.0625 C 7.285156 -2.332031 7.648438 -2.691406 7.921875 -3.140625 C 8.191406 -3.597656 8.328125 -4.101562 8.328125 -4.65625 Z M 8.328125 -9.3125 "/></g></g></g><g fill="#ffffff" fill-opacity="1"><g transform="translate(293.657623, 227.278096)"><g><path d="M 0.671875 -9.3125 L 9.96875 -9.3125 L 9.96875 -7.640625 L 6.15625 -7.640625 L 6.15625 0.015625 L 4.484375 0.015625 L 4.484375 -7.640625 L 0.671875 -7.640625 Z M 0.671875 -9.3125 "/></g></g></g><g fill="#ffffff" fill-opacity="1"><g transform="translate(305.588901, 227.278096)"><g><path d="M 8.328125 -9.3125 L 9.984375 -9.3125 L 9.984375 -4.65625 C 9.984375 -4.019531 9.863281 -3.421875 9.625 -2.859375 C 9.382812 -2.296875 9.046875 -1.796875 8.609375 -1.359375 C 8.179688 -0.929688 7.6875 -0.597656 7.125 -0.359375 C 6.5625 -0.117188 5.960938 0 5.328125 0 C 4.679688 0 4.078125 -0.117188 3.515625 -0.359375 C 2.953125 -0.597656 2.457031 -0.929688 2.03125 -1.359375 C 1.601562 -1.796875 1.269531 -2.296875 1.03125 -2.859375 C 0.789062 -3.421875 0.671875 -4.019531 0.671875 -4.65625 L 0.671875 -9.3125 L 2.328125 -9.3125 L 2.328125 -4.65625 C 2.328125 -4.101562 2.460938 -3.597656 2.734375 -3.140625 C 3.003906 -2.691406 3.363281 -2.332031 3.8125 -2.0625 C 4.269531 -1.800781 4.773438 -1.671875 5.328125 -1.671875 C 5.878906 -1.671875 6.378906 -1.800781 6.828125 -2.0625 C 7.285156 -2.332031 7.648438 -2.691406 7.921875 -3.140625 C 8.191406 -3.597656 8.328125 -4.101562 8.328125 -4.65625 Z M 8.328125 -9.3125 "/></g></g></g><g fill="#ffffff" fill-opacity="1"><g transform="translate(317.520166, 227.278096)"><g><path d="M 6.859375 -4.296875 L 8.1875 -1.65625 L 9.046875 0.015625 L 7.171875 0.015625 L 6.328125 -1.65625 L 5.4375 -3.390625 L 5.390625 -3.46875 C 5.242188 -3.707031 5.046875 -3.898438 4.796875 -4.046875 C 4.554688 -4.191406 4.285156 -4.265625 3.984375 -4.265625 L 2.3125 -4.265625 L 2.3125 0.015625 L 0.65625 0.015625 L 0.65625 -9.3125 L 6.53125 -9.3125 C 6.882812 -9.3125 7.210938 -9.242188 7.515625 -9.109375 C 7.816406 -8.984375 8.082031 -8.804688 8.3125 -8.578125 C 8.539062 -8.347656 8.71875 -8.078125 8.84375 -7.765625 C 8.976562 -7.460938 9.046875 -7.140625 9.046875 -6.796875 C 9.046875 -6.285156 8.910156 -5.828125 8.640625 -5.421875 C 8.367188 -5.015625 8.015625 -4.707031 7.578125 -4.5 C 7.347656 -4.394531 7.109375 -4.328125 6.859375 -4.296875 Z M 2.3125 -5.921875 L 6.53125 -5.9375 C 6.65625 -5.9375 6.769531 -5.960938 6.875 -6.015625 C 7.03125 -6.085938 7.15625 -6.191406 7.25 -6.328125 C 7.34375 -6.460938 7.390625 -6.617188 7.390625 -6.796875 C 7.390625 -6.941406 7.359375 -7.066406 7.296875 -7.171875 C 7.234375 -7.273438 7.179688 -7.351562 7.140625 -7.40625 C 7.085938 -7.457031 7.007812 -7.507812 6.90625 -7.5625 C 6.8125 -7.613281 6.6875 -7.640625 6.53125 -7.640625 L 2.3125 -7.640625 Z M 2.3125 -5.921875 "/></g></g></g><g fill="#ffffff" fill-opacity="1"><g transform="translate(328.52041, 227.278096)"><g><path d="M 3.1875 -7.65625 C 2.945312 -7.65625 2.742188 -7.570312 2.578125 -7.40625 C 2.410156 -7.238281 2.328125 -7.035156 2.328125 -6.796875 L 2.328125 -5.9375 L 8.328125 -5.9375 L 8.328125 -4.265625 L 2.328125 -4.265625 L 2.328125 -2.515625 C 2.328125 -2.285156 2.410156 -2.085938 2.578125 -1.921875 C 2.742188 -1.753906 2.945312 -1.671875 3.1875 -1.671875 L 9.984375 -1.671875 L 9.984375 0 L 3.1875 0 C 2.71875 0 2.296875 -0.109375 1.921875 -0.328125 C 1.546875 -0.554688 1.242188 -0.863281 1.015625 -1.25 C 0.785156 -1.632812 0.671875 -2.054688 0.671875 -2.515625 L 0.671875 -6.796875 C 0.671875 -7.265625 0.785156 -7.6875 1.015625 -8.0625 C 1.242188 -8.445312 1.546875 -8.75 1.921875 -8.96875 C 2.296875 -9.195312 2.71875 -9.3125 3.1875 -9.3125 L 9.984375 -9.3125 L 9.984375 -7.65625 Z M 3.1875 -7.65625 "/></g></g></g><g clip-path="url(#c363076f6f)"><g clip-path="url(#8e4a2d516a)"><g transform="matrix(1, 0, 0, 1, 172, 185)"><g clip-path="url(#95687c6afd)"><g clip-path="url(#a0fae8f796)"><g clip-path="url(#569dfc5eb4)"><rect x="-254.5" width="540" fill="#ffffff" height="539.999987" y="-267.499998" fill-opacity="1"/></g></g></g></g></g></g><g clip-path="url(#d81e39f2dd)"><g clip-path="url(#4c6aa0f3c2)"><g transform="matrix(1, 0, 0, 1, 169, 171)"><g clip-path="url(#39277f8d2d)"><g clip-path="url(#94c9575309)"><g clip-path="url(#716a20181d)"><rect x="-251.5" width="540" fill="#ffffff" height="539.999987" y="-253.499998" fill-opacity="1"/></g></g></g></g></g></g><g clip-path="url(#7610830d0d)"><g clip-path="url(#88a7401ad7)"><g transform="matrix(1, 0, 0, 1, 174, 174)"><g clip-path="url(#0f98db86c8)"><g clip-path="url(#67effcbcb7)"><g clip-path="url(#e5843a74f0)"><rect x="-256.5" width="540" fill="#ffffff" height="539.999987" y="-256.499998" fill-opacity="1"/></g></g></g></g></g></g><g clip-path="url(#c3d4ca2e49)"><g clip-path="url(#2ba279047c)"><g transform="matrix(1, 0, 0, 1, 172, 185)"><g clip-path="url(#a3beb6aa55)"><g clip-path="url(#6cf8105ea1)"><g clip-path="url(#b344151adb)"><rect x="-254.5" width="540" fill="#ffffff" height="539.999987" y="-267.499998" fill-opacity="1"/></g></g></g></g><g transform="matrix(1, 0, 0, 1, 172, 185)"><g clip-path="url(#55a981562d)"><g clip-path="url(#ba53a2aaf7)"><g clip-path="url(#4ee3b90539)"><rect x="-254.5" width="540" fill="#ffffff" height="539.999987" y="-267.499998" fill-opacity="1"/></g></g></g></g></g></g></svg>